<?xml version="1.0" encoding="iso-8859-1"?>
<!-- Generator: Adobe Illustrator 16.0.0, SVG Export Plug-In . SVG Version: 6.00 Build 0)  -->
<!DOCTYPE svg PUBLIC "-//W3C//DTD SVG 1.1//EN" "http://www.w3.org/Graphics/SVG/1.1/DTD/svg11.dtd">
<svg version="1.1" id="Capa_1" xmlns="http://www.w3.org/2000/svg" xmlns:xlink="http://www.w3.org/1999/xlink" x="0px" y="0px"
	 width="577.074px" height="577.074px" viewBox="0 0 577.074 577.074" style="enable-background:new 0 0 577.074 577.074;"
	 xml:space="preserve">
<g>
	<g>
		<path fill="#333" d="M288.538,577.074c159.099,0,288.537-129.438,288.537-288.537c0-120.674-74.496-224.224-179.887-267.231
			c-8.531-3.48-17.254-6.569-26.168-9.229C344.871,4.255,317.195,0,288.538,0C129.438,0,0,129.438,0,288.537
			C0,447.637,129.438,577.074,288.538,577.074z M419.611,62.64c0.779-0.151,1.539-0.343,2.311-0.437
			c0.244-0.028,0.492-0.033,0.738-0.045c48.572,28.887,87.1,72.926,109.014,125.579c-2.355-1.926-5.162-3.04-8.41-3.256
			c-1.195-0.082-2.391-0.237-3.57-0.453c-3.398-0.616-5.902-2.444-7.139-5.712c-0.564-1.485-0.816-3.084-1.258-4.615
			c-0.15-0.53-0.436-1.024-0.693-1.603c-0.408,0.249-0.709,0.355-0.896,0.563c-0.535,0.596-1.037,1.216-1.523,1.852
			c-0.607,0.796-1.137,1.652-1.787,2.412c-2.104,2.464-3.793,2.309-5.32-0.478c-0.334-0.612-0.615-1.257-0.863-1.91
			c-0.355-0.934-0.641-1.893-0.988-2.832c-0.486-1.313-0.922-2.647-1.514-3.913c-1.146-2.448-2.229-2.57-3.871-0.518
			c-0.314,0.392-0.576,0.824-0.914,1.191c-0.543,0.587-1.082,1.191-1.707,1.681c-2.166,1.693-4.385,1.693-6.609,0.045
			c-0.398-0.298-0.746-0.661-1.117-0.995c-1.023-0.922-1.514-2.012-1.461-3.444c0.066-1.795,0.021-3.606-0.162-5.394
			c-0.111-1.069-0.49-2.134-0.902-3.142c-0.334-0.82-1.307-1.032-2.031-0.518c-0.727,0.514-1.389,1.122-2.195,1.787
			c-0.902-0.38-1.824-0.739-2.717-1.146c-3.914-1.775-7.807-3.595-11.734-5.337c-1.348-0.596-2.596-1.285-3.738-2.791
			c-2.109,7.042-2.301,13.97-3.305,20.902c-0.738,0.232-1.477,0.51-2.236,0.702c-3.287,0.836-6.613,1.554-9.873,2.493
			c-5.328,1.538-10.053,0.478-14.365-2.909c-3.121-2.452-5.533-5.496-7.479-8.911c-2.477-4.346-4.877-8.735-7.295-13.109
			c-0.281-0.51-0.494-1.061-0.76-1.632c1.109-1.228,2.562-1.709,3.84-2.444c5.842-3.358,12.039-5.341,18.887-4.672
			c0.836,0.082,1.574-0.069,2.26-0.575c0.48-0.355,1.02-0.632,1.525-0.955c2.533-1.607,5.338-2.917,7.52-4.913
			c2.256-2.064,3.934-4.773,5.807-7.246c0.771-1.016,1.73-1.93,2.207-3.215c-0.881-2.056-1.668-4.108-2.631-6.079
			c-0.789-1.607-0.943-3.223-0.662-4.949c0.34-2.073,0.652-4.149,0.918-6.23c0.094-0.755,0.424-1.579-0.322-2.379
			c-3.264-0.444-6.613-1.024-9.984-1.313c-1.615-0.139-2.553-0.808-3.291-2.138c-1.018-1.836-2.203-3.582-3.188-5.435
			c-0.689-1.305-1.701-1.86-3.1-2.003c-1.891-0.192-3.762-0.555-5.656-0.661c-1.533-0.085-2.646-0.755-3.619-1.848
			c-1.488-1.681-2.41-3.668-3.096-5.773c-0.971-2.97-1.303-6.055-1.539-9.151C418.812,70.764,418.982,66.781,419.611,62.64z
			 M406.996,92.126c-0.611-2.007-0.498-2.766,0.756-3.709c1.586-1.199,3.662-1.469,5.021-0.501c0.799,0.571,1.543,1.289,2.135,2.072
			c1.59,2.097,3.373,3.839,5.871,4.945c2.777,1.228,4.891,3.435,6.797,5.773c3.59,4.406,5.969,9.429,7.393,14.913
			c0.098,0.379,0.086,0.788,0.143,1.399c-2.125,2.097-4.398,3.705-6.887,5.002c-0.881,0.457-1.816,0.861-2.775,1.106
			c-5.736,1.469-9.154-1.71-10.178-6.116c-0.812-3.492-1.352-7.05-2.049-10.788c-0.621,0.159-1.184,0.216-1.674,0.441
			c-2.072,0.951-4.125,1.95-6.299,2.986c-1.705-2.248-2.877-4.619-4.084-7.144c2.211-1.991,4.654-3.549,6.842-5.406
			C408.314,95.26,407.482,93.718,406.996,92.126z M404.781,201.482c1.721-0.465,3.047-1.244,4.174-2.635
			c2.896-3.578,5.953-7.026,8.836-10.612c1-1.24,2.139-1.962,3.645-2.399c4.504-1.306,8.98-2.717,13.465-4.101
			c3.936-1.216,7.955-1.852,12.084-2.016c7.482-0.293,14.773,0.563,21.783,3.28c1.176,0.457,2.322,0.498,3.521,0.481
			c4.201-0.061,8.4-0.11,12.574,0.567c3.99,0.645,7.688,1.73,10.951,4.406c5.723,4.688,11.701,9.074,17.568,13.59
			c3.23,2.485,3.227,2.493,7.318,2.403c5.885-0.135,11.756-0.102,17.561,1.02c8.715,26.137,13.51,54.048,13.51,83.077
			c0,89.12-44.562,167.985-112.527,215.632c0.107-0.768,0.299-1.547,0.559-2.334c0.539-1.611,1.025-3.248,1.715-4.797
			c2.064-4.66,4.211-9.283,6.336-13.918c2.33-5.088,4.664-10.176,7.01-15.26c1.439-3.121,1.635-6.328,0.9-9.668
			c-0.855-3.906-1.594-7.834-2.377-11.756c-0.779-3.893-0.834-7.764,0.51-11.551c2.533-7.139,5.953-13.752,11.48-19.113
			c1.723-1.67,3.316-3.477,4.871-5.305c2.023-2.379,3.562-5.062,4.66-7.996c1.395-3.73,1.896-7.508,1.117-11.482
			c-0.6-3.064-1.701-5.953-2.709-8.877c-0.844-2.457-1.746-4.896-2.473-7.389c-1.166-4.016-1.334-8.107-0.232-12.16
			c0.711-2.598,1.629-5.145,2.533-7.682c0.939-2.637,2.008-5.223,2.951-7.857c1.219-3.428,1.918-6.969,1.566-10.605
			c-0.24-2.477-0.67-4.953-1.262-7.371c-0.635-2.596-1.746-3.064-4.164-2.105c-0.932,0.367-1.824,0.811-2.742,1.207
			c-2.848,1.221-4.648,0.689-6.072-1.375c-1.057-1.533-2.623-2.455-4.414-2.926c-1.541-0.402-3.092-0.91-4.668-1.023
			c-5.299-0.383-10.6-0.172-15.895,0.146c-3.893,0.232-7.793,0.352-11.689,0.42c-1.184,0.021-2.379-0.244-3.555-0.461
			c-3.166-0.582-6.135-1.746-9.037-3.121c-5.27-2.504-10.035-5.793-14.602-9.4c-7.396-5.842-14.031-12.521-20.812-19.041
			c-0.91-0.873-1.469-1.922-1.77-3.076c-0.377-1.444-0.686-2.929-0.812-4.415c-0.592-6.838,0.258-13.578,1.506-20.286
			c1.338-7.181,3.193-14.235,5.242-21.245c1.154-3.954,1.791-7.993,1.758-12.13c-0.012-1.726-0.143-3.411-1.051-4.92
			c-0.801-1.326-0.768-2.701-0.168-4.027c0.986-2.183,1.926-4.415,3.178-6.442C390.877,207.97,397.021,203.572,404.781,201.482z
			 M351.863,62.962c-1.996,1.685-2.762,3.786-3.346,6.116c-0.191,0.767-0.498,1.501-0.857,2.562
			c-4.084-0.437-7.869-1.167-11.619-2.179c-1.775-0.477-3.334-1.322-4.785-2.378c-0.641-0.465-1.25-1.012-1.746-1.624
			c-1.707-2.089-1.195-4.671,1.275-5.651c4.908-1.942,9.887-3.705,14.828-5.561c0.697-0.261,1.334-0.269,2.006,0.053
			c1.633,0.788,3.158,1.722,4.354,3.105C353.621,59.327,353.789,61.334,351.863,62.962z M290.639,38.842
			c1.775-4.439,3.451-8.915,5.223-13.354c18.516,0.51,36.549,2.925,53.93,7.087c-2.391,3.803-4.736,7.625-7.189,11.269
			c-3.607,0.653-6.936,1.326-10.289,1.836c-1.371,0.208-2.379,0.734-3.273,1.799c-3.668,4.366-7.441,8.646-11.109,13.015
			c-3.219,3.831-6.34,7.74-9.523,11.604c-0.428,0.522-0.941,0.971-1.406,1.444c-2.445-0.889-4.371-2.285-6.133-3.937
			c-3.051-2.856-5.193-6.333-6.805-10.143c-2.154-5.104-3.371-10.441-3.986-15.945C289.889,41.861,290.023,40.38,290.639,38.842z
			 M82.404,201.482c0.135-3.802,1.163-7.401,1.224-11.167c-1.004-0.42-1.914-0.8-2.819-1.188c-4.525-1.938-8.809-4.28-12.656-7.381
			c-2.354-1.897-4.459-4.027-6.071-6.597c-2.081-3.321-3.109-6.891-2.505-10.857c0.355-2.326,0.632-4.667,0.922-7.001
			C105.786,78.916,190.242,25.916,286.951,25.341c0.792,1.706,1.591,3.411,2.362,5.125c0.232,0.514,0.307,1.098,0.465,1.685
			c-3.117,2.399-6.189,4.635-9.114,7.054c-2.913,2.411-5.5,5.206-8.564,7.597c-1.452-2.783-3.717-4.582-6.051-6.292
			c-3.904-2.868-2.546-2.375-7.397-2.211c-3.288,0.11-6.569,0.318-9.666,1.689c-1.673,0.743-3.509,0.714-5.32,0.616
			c-1.375-0.073-2.517-0.591-3.354-1.709c-0.241-0.318-0.433-0.673-0.677-0.991c-0.771-0.996-1.816-1.257-2.95-0.877
			c-0.938,0.318-1.885,0.722-2.697,1.277c-1.399,0.958-2.778,1.979-4.019,3.129c-1.55,1.437-3.219,2.685-4.994,3.819
			c-2.701,1.717-5.361,3.5-8.074,5.194c-1.004,0.628-1.616,1.383-1.787,2.59c-0.265,1.877-0.779,3.725-0.975,5.61
			c-0.253,2.489-0.326,4.998,0.494,7.434c1.098,3.26,3.893,4.688,7.128,3.493c3.864-1.428,7.487-3.333,10.726-5.912
			c2.142-1.706,3.917-3.713,4.9-6.332c0.175-0.465,0.383-0.926,0.648-1.342c0.583-0.897,1.322-1.13,2.301-0.702
			c0.824,0.359,1.607,0.804,2.419,1.191c2.04,0.979,4.076,0.931,6.03-0.188c1.036-0.592,2.028-1.285,2.954-2.036
			c0.849-0.69,1.599-1.51,2.37-2.297c1.277-1.306,2.758-2.317,4.443-2.999c3.17-1.281,5.443-0.694,7.267,2.154
			c1.387,2.17,3.17,3.831,5.267,5.247c0.91,0.612,1.795,1.285,2.587,2.036c1.252,1.191,1.648,2.664,1.236,4.386
			c-0.449,1.889-1.387,3.521-2.395,5.141c-0.849,1.358-1.717,2.701-2.48,4.104c-0.375,0.685-0.596,1.481-0.747,2.256
			c-0.163,0.82,0.596,1.653,1.424,1.514c1.073-0.179,2.114-0.546,3.17-0.836c0.628-0.171,1.252-0.342,2.191-0.6
			c-0.351,6.23-1.29,11.991-4.284,17.246c-0.539,0.947-1.216,1.856-1.995,2.615c-2.224,2.163-4.859,3.056-7.968,2.297
			c-2.162-0.531-4.137-1.306-5.834-2.86c-3.325-3.04-6.401-2.685-9.392,0.576c-0.938,1.02-1.763,2.199-2.395,3.431
			c-0.661,1.281-1.624,1.914-2.946,2.272c-5.851,1.583-11.775,2.252-17.813,1.453c-1.016-0.135-1.95-0.086-2.942,0.212
			c-3.823,1.15-7.674,2.22-11.514,3.313c-1.542,0.441-2.999,1.044-4.378,1.893c-2.562,1.575-5.267,2.88-8.14,3.786
			c-2.913,0.918-5.851,1.416-8.67-0.616c-9.151,7.646-19.335,13.235-30.686,16.854c-0.673,4.247-1.326,8.384-1.975,12.521
			c-0.796,5.039-1.579,10.078-2.387,15.112c-0.204,1.273-0.727,1.762-1.894,1.954c-1.367,0.225-2.66-0.012-3.566-1.089
			c-0.894-1.061-1.734-2.203-2.362-3.431c-1.607-3.146-2.579-6.541-2.946-10.021c-0.514-4.872-3.084-8.16-7.287-10.265
			c-5.524-2.767-11.444-3.692-17.507-2.628c-9.963,1.75-18.482,6.406-25.341,13.844c-5.793,6.283-5.732,6.283-7.352,14.981
			c-0.563,3.036-0.637,6.177,0.334,9.217c0.996,3.122,3.04,5.051,6.292,5.749c1.693,0.363,3.354,0.522,5.051,0.159
			c1.853-0.396,3.705-0.804,5.565-1.159c0.559-0.106,1.224-0.216,1.714-0.017c1.403,0.563,2.644,1.42,3.574,2.648
			c1.179,1.55,1.509,3.215,0.685,5.063c-0.624,1.399-1.505,2.619-2.652,3.594c-1.444,1.232-2.991,2.342-4.5,3.488
			c-0.637,0.481-1.359,0.865-1.938,1.404c-2.457,2.297-2.416,5.051,0.098,7.238c0.6,0.522,1.29,0.942,1.958,1.375
			c0.571,0.367,1.179,0.686,1.852,1.073c-0.167,1.812-0.281,3.5-0.481,5.181c-0.526,4.39-0.551,8.797-0.314,13.191
			c0.225,4.203,2.04,7.748,5.471,10.245c2.256,1.645,4.672,3.089,7.124,4.423c1.383,0.755,2.954,1.22,4.492,1.62
			c4.525,1.179,8.568,0.163,11.844-3.17c1.383-1.408,2.505-3.109,3.566-4.79c1.958-3.117,4.819-4.427,8.405-3.708
			c1.93,0.388,3.599,1.334,4.945,2.676c1.677,1.665,3.68,2.713,5.752,3.709c2.791,1.342,5.557,2.742,8.364,4.051
			c0.983,0.457,2.036,0.804,3.088,1.073c7.899,1.995,14.672,5.81,19.67,12.362c1.036,1.358,2.219,2.113,3.782,2.66
			c7.421,2.603,14.235,6.34,20.331,11.326c7.683,6.291,13.452,13.954,16.418,23.521c0.698,2.248,1.697,4.141,3.39,5.834
			c1.608,1.611,2.946,3.546,4.158,5.488c1.632,2.627,3.027,5.402,4.529,8.115c0.379,0.686,0.771,1.363,1.105,1.945
			c1.444,0.291,2.722,0.52,3.986,0.801c8.462,1.885,16.442,4.949,23.668,9.809c3.758,2.525,7.116,5.504,10.021,8.992
			c0.8,0.963,1.265,1.941,1.285,3.234c0.171,11.408-3.97,20.674-13.484,27.258c-1.224,0.85-1.954,1.869-2.46,3.244
			c-2.448,6.662-4.953,13.301-7.495,19.928c-0.461,1.195-1.069,2.373-1.808,3.418c-3.35,4.742-6.805,9.404-10.143,14.15
			c-1.069,1.521-2.354,2.701-3.978,3.549c-1.24,0.645-2.473,1.318-3.737,1.914c-4.627,2.188-9.47,3.746-14.476,4.773
			c-1.326,0.273-2.366,0.783-3.227,1.926c-3.313,4.395-6.736,8.703-10.114,13.053c-0.367,0.473-0.751,0.945-1.032,1.473
			c-3.24,5.996-7.206,11.529-10.93,17.221c-0.841,1.285-1.877,2.293-3.154,3.139c-5.422,3.59-10.832,7.195-16.197,10.869
			c-1.563,1.064-3.044,2.275-4.423,3.568c-2.705,2.531-5.333,5.141-7.939,7.77c-0.69,0.693-1.334,1.51-1.742,2.391
			c-2.526,5.438-4.953,10.926-7.479,16.369c-0.539,1.158-0.632,2.264-0.404,3.484c1.702,9.037,3.395,18.078,5.067,27.119
			c0.196,1.049,0.416,2.117,0.404,3.195c-1.003,0.041-1.546,0.049-2.048-0.018c-4.619-2.695-9.172-5.49-13.607-8.453
			c-6.557-6.08-11.665-13.301-16.148-20.996c-0.437-0.75-0.661-1.676-0.788-2.545c-1.044-7.125-2.056-14.252-3.04-21.389
			c-0.126-0.926-0.433-1.709-0.947-2.477c-1.187-1.777-1.718-3.797-2.113-5.879c-0.926-4.908-0.379-9.771,0.343-14.631
			c0.853-5.736,1.73-11.469,2.595-17.201c0.123-0.807,0.062-1.541-0.465-2.26c-1.412-1.926-1.832-4.174-1.963-6.508
			c-0.253-4.451,0.526-8.764,1.653-13.039c0.404-1.543,0.767-3.105,1-4.676c0.767-5.145,1.477-10.295,2.179-15.447
			c0.293-2.166,0.518-4.342,0.763-6.393c-0.465-0.43-0.75-0.711-1.057-0.963c-2.88-2.416-4.562-5.51-5.267-9.178
			c-0.498-2.59-0.494-5.172-0.021-7.756c0.359-1.941,0.816-3.859,1.236-5.818c-1.012-0.693-1.917-1.301-2.815-1.934
			c-4.349-3.072-8.4-6.49-11.787-10.619c-3.488-4.256-6.94-8.545-10.298-12.902c-1.334-1.732-2.538-3.609-3.525-5.561
			c-1.608-3.182-2.403-6.576-1.587-10.166c0.188-0.834,0.024-1.559-0.253-2.33c-2.06-5.773-2.309-11.742-1.84-17.777
			c0.322-4.149,1.428-8.062,3.786-11.559c1.457-2.154,2.84-4.361,4.333-6.487c2.648-3.766,5.329-7.507,8.042-11.224
			c2.652-3.635,4.153-7.703,4.929-12.105c0.351-1.991,0.567-3.974,0.371-5.969c-0.302-3.092-1.375-5.806-4.043-7.707
			c-2.934-2.085-5.757-4.325-8.727-6.349c-1.534-1.044-2.252-2.395-2.66-4.129c-0.955-4.088-2.085-8.135-3.011-12.228
			c-0.331-1.453-0.934-2.562-2.081-3.505c-1.779-1.46-3.472-3.019-5.19-4.553C83.665,202.711,83.036,202.083,82.404,201.482z
			 M158.973,192.837c0.51-0.314,1.044-0.587,1.587-0.84c1.991-0.922,3.986-1.84,5.978-2.758c1.538-0.71,3.076-1.424,4.618-2.13
			c0.445-0.204,0.918-0.355,1.501-0.58c1.563,0.983,3.219,1.897,4.733,3.011c0.004,0.004,0.008,0.004,0.017,0.008
			c1.571,1.15,3.468,1.452,5.487,2.317c-0.498,2.432-0.686,4.696-2.199,6.626c-0.84-0.306-1.514-0.486-2.125-0.788
			c-3.395-1.661-7.001-2.269-10.743-2.228c-1.297,0.016-2.595,0.094-3.896,0.098c-1.497,0.004-2.999-0.012-4.492-0.094
			c-0.754-0.041-1.779,0.098-1.93-0.959C157.37,193.563,158.308,193.245,158.973,192.837z M152.008,178.961
			c-5.928-0.828-11.836-1.824-17.74-2.827c-1.746-0.298-3.558-0.6-4.884-1.971c1.318-4.305,4.137-6.561,8.36-6.993
			c2.958-0.306,5.602,0.286,7.785,2.305c3.419,3.158,7.43,4.427,12.036,4.476c2.367,0.024,4.745,0.596,7.083,1.085
			c0.82,0.171,1.648,0.726,2.276,1.31c0.478,0.445,0.571,1.081,0.4,1.632c-0.151,0.478-0.498,0.894-1.044,1.032
			c-1.538,0.388-3.149,0.739-4.716,0.694c-0.935-0.029-1.869-0.09-2.803-0.139C156.505,179.447,154.245,179.275,152.008,178.961z"/>
	</g>
</g>
</svg>
