<svg xmlns="http://www.w3.org/2000/svg" width="577.074" height="577.074" xmlns:v="https://vecta.io/nano"><path fill="#a3a591" d="M288.538 577.074c159.1 0 288.537-129.438 288.537-288.537 0-120.674-74.496-224.224-179.887-267.23-8.53-3.48-17.254-6.57-26.168-9.23A287.35 287.35 0 0 0 288.538 0C129.438 0 0 129.438 0 288.537s129.438 288.537 288.538 288.537zM419.61 62.64c.78-.15 1.54-.343 2.31-.437.244-.028.492-.033.738-.045 48.572 28.887 87.1 72.926 109.014 125.58-2.355-1.926-5.162-3.04-8.4-3.256-1.195-.082-2.39-.237-3.57-.453-3.398-.616-5.902-2.444-7.14-5.712-.564-1.485-.816-3.084-1.258-4.615-.15-.53-.436-1.024-.693-1.603-.408.25-.71.355-.896.563a30.31 30.31 0 0 0-1.523 1.852c-.607.796-1.137 1.652-1.787 2.412-2.104 2.464-3.793 2.31-5.32-.478a15.39 15.39 0 0 1-.863-1.91c-.355-.934-.64-1.893-.988-2.832-.486-1.313-.922-2.647-1.514-3.913-1.146-2.448-2.23-2.57-3.87-.518-.314.392-.576.824-.914 1.19-.543.587-1.082 1.19-1.707 1.68-2.166 1.693-4.385 1.693-6.61.045-.398-.298-.746-.66-1.117-.995-1.023-.922-1.514-2.012-1.46-3.444.066-1.795.02-3.606-.162-5.394-.11-1.07-.5-2.134-.902-3.142-.334-.82-1.307-1.032-2.03-.518s-1.39 1.122-2.195 1.787c-.902-.38-1.824-.74-2.717-1.146l-11.734-5.337c-1.348-.596-2.596-1.285-3.738-2.79-2.11 7.042-2.3 13.97-3.305 20.902-.738.232-1.477.5-2.236.702-3.287.836-6.613 1.554-9.873 2.493-5.328 1.538-10.053.478-14.365-2.91-3.12-2.452-5.533-5.496-7.48-8.91l-7.295-13.11c-.28-.5-.494-1.06-.76-1.632 1.11-1.228 2.562-1.71 3.84-2.444 5.842-3.358 12.04-5.34 18.887-4.672.836.082 1.574-.07 2.26-.575.48-.355 1.02-.632 1.525-.955 2.533-1.607 5.338-2.917 7.52-4.913 2.256-2.064 3.934-4.773 5.807-7.246.77-1.016 1.73-1.93 2.207-3.215-.88-2.056-1.668-4.108-2.63-6.08-.79-1.607-.943-3.223-.662-4.95a177.74 177.74 0 0 0 .918-6.23c.094-.755.424-1.58-.322-2.38-3.264-.444-6.613-1.024-9.984-1.313-1.615-.14-2.553-.808-3.29-2.138-1.018-1.836-2.203-3.582-3.188-5.435-.69-1.305-1.7-1.86-3.1-2.003-1.89-.192-3.762-.555-5.656-.66-1.533-.085-2.646-.755-3.62-1.848-1.488-1.68-2.4-3.668-3.096-5.773-.97-2.97-1.303-6.055-1.54-9.15-.306-4.004-.136-7.987.493-12.128zm-12.615 29.486c-.61-2.007-.498-2.766.756-3.71 1.586-1.2 3.662-1.47 5.02-.5.8.57 1.543 1.29 2.135 2.072 1.6 2.097 3.373 3.84 5.87 4.945 2.777 1.228 4.89 3.435 6.797 5.773 3.6 4.406 5.97 9.43 7.393 14.913.098.38.086.788.143 1.4-2.125 2.097-4.398 3.705-6.887 5.002-.88.457-1.816.86-2.775 1.106-5.736 1.47-9.154-1.7-10.178-6.116-.812-3.492-1.352-7.05-2.05-10.788-.62.16-1.184.216-1.674.44l-6.3 2.986c-1.705-2.248-2.877-4.62-4.084-7.144 2.21-1.99 4.654-3.55 6.842-5.406.306-1.84-.526-3.38-1.012-4.973zm-2.215 109.356c1.72-.465 3.047-1.244 4.174-2.635l8.836-10.612c1-1.24 2.14-1.962 3.645-2.4l13.465-4.1c3.936-1.216 7.955-1.852 12.084-2.016 7.482-.293 14.773.563 21.783 3.28 1.176.457 2.322.498 3.52.48 4.2-.06 8.4-.1 12.574.567 4 .645 7.688 1.73 10.95 4.406 5.723 4.688 11.7 9.074 17.568 13.6 3.23 2.485 3.227 2.493 7.318 2.403 5.885-.135 11.756-.102 17.56 1.02 8.715 26.137 13.5 54.048 13.5 83.077 0 89.12-44.562 167.985-112.527 215.632.107-.768.3-1.547.56-2.334.54-1.61 1.025-3.248 1.715-4.797l6.336-13.918 7-15.26c1.44-3.12 1.635-6.328.9-9.668-.855-3.906-1.594-7.834-2.377-11.756-.78-3.893-.834-7.764.5-11.55 2.533-7.14 5.953-13.752 11.48-19.113 1.723-1.67 3.316-3.477 4.87-5.305 2.023-2.38 3.562-5.062 4.66-7.996 1.395-3.73 1.896-7.508 1.117-11.482-.6-3.064-1.7-5.953-2.71-8.877-.844-2.457-1.746-4.896-2.473-7.39-1.166-4.016-1.334-8.107-.232-12.16.71-2.598 1.63-5.145 2.533-7.682.94-2.637 2.008-5.223 2.95-7.857 1.22-3.428 1.918-6.97 1.566-10.605-.24-2.477-.67-4.953-1.262-7.37-.635-2.596-1.746-3.064-4.164-2.105-.932.367-1.824.81-2.742 1.207-2.848 1.22-4.648.69-6.072-1.375-1.057-1.533-2.623-2.455-4.414-2.926-1.54-.402-3.092-.9-4.668-1.023-5.3-.383-10.6-.172-15.895.146-3.893.232-7.793.352-11.69.42-1.184.02-2.38-.244-3.555-.46-3.166-.582-6.135-1.746-9.037-3.12-5.27-2.504-10.035-5.793-14.602-9.4-7.396-5.842-14.03-12.52-20.812-19.04-.9-.873-1.47-1.922-1.77-3.076-.377-1.444-.686-2.93-.812-4.415-.592-6.838.258-13.578 1.506-20.286 1.338-7.18 3.193-14.235 5.242-21.245 1.154-3.954 1.79-7.993 1.758-12.13-.012-1.726-.143-3.41-1.05-4.92-.8-1.326-.768-2.7-.168-4.027.986-2.183 1.926-4.415 3.178-6.442 4.245-6.864 10.39-11.262 18.15-13.352zm-52.918-138.52c-1.996 1.685-2.762 3.786-3.346 6.116-.19.767-.498 1.5-.857 2.562a74.43 74.43 0 0 1-11.619-2.179c-1.775-.477-3.334-1.322-4.785-2.378-.64-.465-1.25-1.012-1.746-1.624-1.707-2.09-1.195-4.67 1.275-5.65 4.908-1.942 9.887-3.705 14.828-5.56.697-.26 1.334-.27 2.006.053 1.633.788 3.158 1.722 4.354 3.105 1.648 1.922 1.816 3.93-.1 5.557zm-61.224-24.12l5.223-13.354c18.516.5 36.55 2.925 53.93 7.087l-7.19 11.27-10.29 1.836c-1.37.208-2.38.734-3.273 1.8l-11.11 13.015-9.523 11.604c-.428.522-.94.97-1.406 1.444-2.445-.89-4.37-2.285-6.133-3.937-3.05-2.856-5.193-6.333-6.805-10.143-2.154-5.104-3.37-10.44-3.986-15.945-.2-1.656-.056-3.137.56-4.675zM82.404 201.482c.135-3.802 1.163-7.4 1.224-11.167l-2.82-1.188c-4.525-1.938-8.81-4.28-12.656-7.38-2.354-1.897-4.46-4.027-6.07-6.597-2.08-3.32-3.11-6.89-2.505-10.857.355-2.326.632-4.667.922-7C105.786 78.916 190.242 25.916 286.95 25.34l2.362 5.125c.232.514.307 1.098.465 1.685-3.117 2.4-6.19 4.635-9.114 7.054-2.913 2.41-5.5 5.206-8.564 7.597-1.452-2.783-3.717-4.582-6.05-6.292-3.904-2.868-2.546-2.375-7.397-2.21-3.288.1-6.57.318-9.666 1.69-1.673.743-3.51.714-5.32.616-1.375-.073-2.517-.59-3.354-1.71-.24-.318-.433-.673-.677-.99-.77-.996-1.816-1.257-2.95-.877-.938.318-1.885.722-2.697 1.277-1.4.958-2.778 1.98-4.02 3.13-1.55 1.437-3.22 2.685-4.994 3.82l-8.074 5.194c-1.004.628-1.616 1.383-1.787 2.6-.265 1.877-.78 3.725-.975 5.6-.253 2.49-.326 4.998.494 7.434 1.098 3.26 3.893 4.688 7.128 3.493 3.864-1.428 7.487-3.333 10.726-5.912 2.142-1.706 3.917-3.713 4.9-6.332.175-.465.383-.926.648-1.342.583-.897 1.322-1.13 2.3-.702.824.36 1.607.804 2.42 1.19 2.04.98 4.076.93 6.03-.188 1.036-.592 2.028-1.285 2.954-2.036.85-.7 1.6-1.5 2.37-2.297 1.277-1.306 2.758-2.317 4.443-3 3.17-1.28 5.443-.694 7.267 2.154 1.387 2.17 3.17 3.83 5.267 5.247.9.612 1.795 1.285 2.587 2.036 1.252 1.19 1.648 2.664 1.236 4.386-.45 1.89-1.387 3.52-2.395 5.14-.85 1.358-1.717 2.7-2.48 4.104-.375.685-.596 1.48-.747 2.256-.163.82.596 1.653 1.424 1.514 1.073-.18 2.114-.546 3.17-.836l2.19-.6c-.35 6.23-1.3 11.99-4.284 17.246-.54.947-1.216 1.856-1.995 2.615-2.224 2.163-4.86 3.056-7.968 2.297-2.162-.53-4.137-1.306-5.834-2.86-3.325-3.04-6.4-2.685-9.392.576-.938 1.02-1.763 2.2-2.395 3.43-.66 1.28-1.624 1.914-2.946 2.272-5.85 1.583-11.775 2.252-17.813 1.453-1.016-.135-1.95-.086-2.942.212l-11.514 3.313c-1.542.44-3 1.044-4.378 1.893-2.562 1.575-5.267 2.88-8.14 3.786-2.913.918-5.85 1.416-8.67-.616-9.15 7.646-19.335 13.235-30.686 16.854l-4.362 27.633c-.204 1.273-.727 1.762-1.894 1.954-1.367.225-2.66-.012-3.566-1.09-.894-1.06-1.734-2.203-2.362-3.43-1.607-3.146-2.58-6.54-2.946-10.02-.514-4.872-3.084-8.16-7.287-10.265-5.524-2.767-11.444-3.692-17.507-2.628-9.963 1.75-18.482 6.406-25.34 13.844-5.793 6.283-5.732 6.283-7.352 14.98-.563 3.036-.637 6.177.334 9.217.996 3.122 3.04 5.05 6.292 5.75 1.693.363 3.354.522 5.05.16l5.565-1.16c.56-.106 1.224-.216 1.714-.017 1.403.563 2.644 1.42 3.574 2.648 1.18 1.55 1.51 3.215.685 5.063-.624 1.4-1.505 2.62-2.652 3.594-1.444 1.232-2.99 2.342-4.5 3.488-.637.48-1.36.865-1.938 1.404-2.457 2.297-2.416 5.05.098 7.238.6.522 1.3.942 1.958 1.375.57.367 1.18.686 1.852 1.073l-.48 5.18c-.526 4.4-.55 8.797-.314 13.19.225 4.203 2.04 7.748 5.47 10.245 2.256 1.645 4.672 3.09 7.124 4.423 1.383.755 2.954 1.22 4.492 1.62 4.525 1.18 8.568.163 11.844-3.17 1.383-1.408 2.505-3.11 3.566-4.8 1.958-3.117 4.82-4.427 8.405-3.708 1.93.388 3.6 1.334 4.945 2.676 1.677 1.665 3.68 2.713 5.752 3.71l8.364 4.05c.983.457 2.036.804 3.088 1.073 7.9 1.995 14.672 5.8 19.67 12.362 1.036 1.358 2.22 2.113 3.782 2.66 7.42 2.603 14.235 6.34 20.33 11.326 7.683 6.29 13.452 13.954 16.418 23.52.698 2.248 1.697 4.14 3.4 5.834 1.608 1.61 2.946 3.546 4.158 5.488 1.632 2.627 3.027 5.402 4.53 8.115l1.105 1.945 3.986.8c8.462 1.885 16.442 4.95 23.668 9.81 3.758 2.525 7.116 5.504 10.02 8.992.8.963 1.265 1.94 1.285 3.234.17 11.408-3.97 20.674-13.484 27.258-1.224.85-1.954 1.87-2.46 3.244l-7.495 19.928c-.46 1.195-1.07 2.373-1.808 3.418l-10.143 14.15c-1.07 1.52-2.354 2.7-3.978 3.55-1.24.645-2.473 1.318-3.737 1.914-4.627 2.188-9.47 3.746-14.476 4.773-1.326.273-2.366.783-3.227 1.926l-10.114 13.053c-.367.473-.75.945-1.032 1.473-3.24 5.996-7.206 11.53-10.93 17.22-.84 1.285-1.877 2.293-3.154 3.14l-16.197 10.87c-1.563 1.064-3.044 2.275-4.423 3.568-2.705 2.53-5.333 5.14-7.94 7.77-.7.693-1.334 1.5-1.742 2.39l-7.48 16.37c-.54 1.158-.632 2.264-.404 3.484l5.067 27.12c.196 1.05.416 2.117.404 3.195-1.003.04-1.546.05-2.048-.018-4.62-2.695-9.172-5.5-13.607-8.453-6.557-6.08-11.665-13.3-16.148-20.996-.437-.75-.66-1.676-.788-2.545l-3.04-21.39c-.126-.926-.433-1.71-.947-2.477-1.187-1.777-1.718-3.797-2.113-5.88-.926-4.908-.38-9.77.343-14.63l2.595-17.2c.123-.807.062-1.54-.465-2.26-1.412-1.926-1.832-4.174-1.963-6.508-.253-4.45.526-8.764 1.653-13.04.404-1.543.767-3.105 1-4.676l2.18-15.447c.293-2.166.518-4.342.763-6.393-.465-.43-.75-.71-1.057-.963-2.88-2.416-4.562-5.5-5.267-9.178-.498-2.6-.494-5.172-.02-7.756.36-1.94.816-3.86 1.236-5.818l-2.815-1.934c-4.35-3.072-8.4-6.5-11.787-10.62l-10.298-12.902c-1.334-1.732-2.538-3.61-3.525-5.56-1.608-3.182-2.403-6.576-1.587-10.166.188-.834.024-1.56-.253-2.33-2.06-5.773-2.31-11.742-1.84-17.777.322-4.15 1.428-8.062 3.786-11.56l4.333-6.487 8.042-11.224c2.652-3.635 4.153-7.703 4.93-12.105.35-1.99.567-3.974.37-5.97-.302-3.092-1.375-5.806-4.043-7.707-2.934-2.085-5.757-4.325-8.727-6.35-1.534-1.044-2.252-2.395-2.66-4.13l-3.01-12.228c-.33-1.453-.934-2.562-2.08-3.505-1.78-1.46-3.472-3.02-5.2-4.553-.663-.597-1.292-1.225-1.924-1.826zm76.57-8.645a15.51 15.51 0 0 1 1.587-.84l10.596-4.888c.445-.204.918-.355 1.5-.58 1.563.983 3.22 1.897 4.733 3.01 1.588 1.158 3.485 1.46 5.504 2.325-.498 2.432-.686 4.696-2.2 6.626-.84-.306-1.514-.486-2.125-.788-3.395-1.66-7-2.27-10.743-2.228l-3.896.098c-1.497.004-3-.012-4.492-.094-.754-.04-1.78.098-1.93-.96-.14-.957.8-1.275 1.464-1.683zm-6.965-13.876c-5.928-.828-11.836-1.824-17.74-2.827-1.746-.298-3.558-.6-4.884-1.97 1.318-4.305 4.137-6.56 8.36-6.993 2.958-.306 5.602.286 7.785 2.305 3.42 3.158 7.43 4.427 12.036 4.476 2.367.024 4.745.596 7.083 1.085.82.17 1.648.726 2.276 1.3.478.445.57 1.08.4 1.632-.15.478-.498.894-1.044 1.032-1.538.388-3.15.74-4.716.694-.935-.03-1.87-.1-2.803-.14-2.256-.118-4.516-.3-6.753-.604z"/></svg>